<?xml version="1.0" standalone="no"?>
<!DOCTYPE svg PUBLIC "-//W3C//DTD SVG 20010904//EN"
 "http://www.w3.org/TR/2001/REC-SVG-20010904/DTD/svg10.dtd">
<svg version="1.0" xmlns="http://www.w3.org/2000/svg"
 width="1280.000000pt" height="831.000000pt" viewBox="0 0 1280.000000 831.000000"
 preserveAspectRatio="xMidYMid meet">
<metadata>
Created by potrace 1.15, written by Peter Selinger 2001-2017
</metadata>
<g transform="translate(0.000000,831.000000) scale(0.100000,-0.100000)"
fill="#000000" stroke="none">
<path d="M1064 8283 c-17 -15 -90 -80 -164 -143 -212 -184 -334 -346 -375
-500 -20 -73 -19 -203 1 -271 38 -129 102 -226 239 -368 118 -122 203 -195
460 -396 236 -185 398 -321 585 -491 170 -155 406 -391 399 -398 -7 -8 -376
-24 -804 -36 -198 -6 -425 -17 -505 -25 -410 -44 -671 -142 -862 -323 -38 -36
-38 -36 -33 -101 3 -36 7 -163 9 -281 5 -323 25 -397 141 -520 92 -98 96 -121
85 -485 -5 -141 -3 -153 19 -202 13 -29 44 -72 71 -97 l47 -44 6 -93 c4 -63
16 -126 36 -189 64 -203 74 -294 43 -385 -18 -50 -18 -50 11 -130 54 -151 87
-323 107 -550 10 -109 15 -136 35 -165 67 -98 92 -195 125 -475 11 -98 28
-209 37 -245 19 -78 73 -199 97 -219 17 -14 17 -10 14 74 -3 95 8 116 37 72
14 -22 20 -48 39 -184 l6 -43 -53 0 c-84 0 -84 1 -45 -180 54 -249 182 -503
386 -766 l70 -91 79 -7 c365 -31 944 -31 1608 -1 1017 46 1047 46 2130 50 594
1 1179 8 1300 14 769 37 1581 35 2990 -9 959 -31 1621 -30 1799 0 182 31 344
93 481 185 l88 58 48 103 c111 237 209 521 255 740 17 81 17 82 -5 126 -48
101 -16 247 88 396 l40 57 -19 75 c-11 41 -25 125 -32 186 l-11 111 50 49 c78
76 86 122 53 314 -34 195 -30 216 66 341 81 105 89 180 50 427 -21 128 -12
164 83 346 84 162 111 234 111 303 0 47 -30 135 -55 163 -16 18 -15 21 17 53
23 23 39 53 52 98 46 162 57 189 90 216 l33 28 12 155 c17 216 38 426 57 553
l15 108 -56 64 c-139 158 -359 280 -606 335 -253 57 -460 70 -1119 71 -283 1
-560 4 -614 8 l-99 6 74 61 c109 90 357 272 579 426 226 157 281 192 524 340
448 274 581 385 667 557 45 90 59 152 59 262 0 123 -28 235 -110 435 -34 82
-75 185 -93 228 -31 79 -32 79 -92 107 -136 61 -197 74 -365 74 -174 0 -242
-14 -419 -86 -188 -77 -342 -175 -736 -470 -302 -226 -706 -498 -1460 -984
-650 -419 -1026 -667 -1279 -845 l-189 -133 -731 7 c-815 8 -1321 -5 -1474
-39 -14 -4 -21 -1 -20 7 2 10 -22 13 -98 14 l-100 0 -555 409 c-909 670 -1296
963 -1707 1287 -117 93 -252 192 -300 220 -107 64 -199 130 -412 297 -267 210
-430 297 -650 347 -58 13 -154 26 -215 30 l-110 5 -31 -28z"/>
</g>
</svg>
